<?xml version="1.0" encoding="iso-8859-1"?>
<!-- Uploaded to: SVG Repo, www.svgrepo.com, Generator: SVG Repo Mixer Tools -->
<svg fill="#000000" height="800px" width="800px" version="1.1" id="Layer_1" xmlns="http://www.w3.org/2000/svg" xmlns:xlink="http://www.w3.org/1999/xlink" 
	 viewBox="0 0 503.76 503.76" xml:space="preserve">
<g>
	<g>
		<path d="M494.336,182.427c-8.115-10.095-20.198-15.88-33.152-15.88H460.8c0-18.825-15.309-34.133-34.133-34.133h-17.63
			c-3.968-19.447-21.205-34.133-41.805-34.133h-98.406l-40.107-48.128c-1.621-1.946-4.019-3.072-6.554-3.072h-153.6
			c-18.825,0-34.133,15.309-34.133,34.133v51.2h-0.299C15.317,132.413,0,147.722,0,166.547v256
			c0,18.825,15.317,34.133,34.133,34.133h392.533c18.825,0,34.133-15.309,34.133-34.133v-7.629l41.967-196.702
			C505.532,205.552,502.46,192.514,494.336,182.427z M162.432,234.813h-102.4c-4.71,0-8.533-3.814-8.533-8.533
			s3.823-8.533,8.533-8.533h102.4c4.71,0,8.533,3.814,8.533,8.533S167.142,234.813,162.432,234.813z M162.432,200.68h-102.4
			c-4.71,0-8.533-3.814-8.533-8.533s3.823-8.533,8.533-8.533h102.4c4.71,0,8.533,3.814,8.533,8.533S167.142,200.68,162.432,200.68z
			 M51.499,132.413v-51.2c0-9.404,7.654-17.067,17.067-17.067h149.606l40.107,48.137c1.621,1.937,4.019,3.063,6.554,3.063h102.4
			c11.119,0,20.617,7.134,24.132,17.067H51.499z M486.084,214.606L460.8,333.126V183.613h0.384c7.757,0,14.993,3.465,19.866,9.506
			C485.914,199.17,487.748,206.978,486.084,214.606z"/>
	</g>
</g>
</svg>