<?xml version="1.0" encoding="utf-8"?>

<!DOCTYPE svg PUBLIC "-//W3C//DTD SVG 1.1//EN" "http://www.w3.org/Graphics/SVG/1.1/DTD/svg11.dtd">
<!-- Uploaded to: SVG Repo, www.svgrepo.com, Generator: SVG Repo Mixer Tools -->
<svg fill="#000000" height="800px" width="800px" version="1.1" id="图层_1" xmlns="http://www.w3.org/2000/svg" xmlns:xlink="http://www.w3.org/1999/xlink" 
	 viewBox="0 0 40 40" enable-background="new 0 0 40 40" xml:space="preserve">
<g>
	<g>
		<path d="M26.5,27h-13c-0.8,0-1.5-0.7-1.5-1.5v-11c0-0.8,0.7-1.5,1.5-1.5h4c0.8,0,1.5,0.7,1.5,1.5v1c0,0.3,0.2,0.5,0.5,0.5h7
			c0.8,0,1.5,0.7,1.5,1.5v8C28,26.3,27.3,27,26.5,27z M13.5,14c-0.3,0-0.5,0.2-0.5,0.5v11c0,0.3,0.2,0.5,0.5,0.5h13
			c0.3,0,0.5-0.2,0.5-0.5v-8c0-0.3-0.2-0.5-0.5-0.5h-7c-0.8,0-1.5-0.7-1.5-1.5v-1c0-0.3-0.2-0.5-0.5-0.5H13.5z"/>
	</g>
	<g>
		<g>
			<path d="M22,22.2h-4c-0.3,0-0.5-0.2-0.5-0.5s0.2-0.5,0.5-0.5h4c0.3,0,0.5,0.2,0.5,0.5S22.3,22.2,22,22.2z"/>
		</g>
		<g>
			<path d="M20,24.2c-0.3,0-0.5-0.2-0.5-0.5v-4c0-0.3,0.2-0.5,0.5-0.5s0.5,0.2,0.5,0.5v4C20.5,24,20.3,24.2,20,24.2z"/>
		</g>
	</g>
</g>
</svg>