<?xml version="1.0" encoding="utf-8"?>

<!DOCTYPE svg PUBLIC "-//W3C//DTD SVG 1.1//EN" "http://www.w3.org/Graphics/SVG/1.1/DTD/svg11.dtd">
<!-- Uploaded to: SVG Repo, www.svgrepo.com, Generator: SVG Repo Mixer Tools -->
<svg height="800px" width="800px" version="1.1" id="图层_1" xmlns="http://www.w3.org/2000/svg" xmlns:xlink="http://www.w3.org/1999/xlink" 
	 viewBox="0 0 40 40" enable-background="new 0 0 40 40" xml:space="preserve">
<g>
	<g>
		<g>
			<g>
				<path fill="#231815" d="M20,28.5c-4.7,0-8.5-3.8-8.5-8.5s3.8-8.5,8.5-8.5s8.5,3.8,8.5,8.5S24.7,28.5,20,28.5z M20,12.5
					c-4.1,0-7.5,3.4-7.5,7.5s3.4,7.5,7.5,7.5s7.5-3.4,7.5-7.5S24.1,12.5,20,12.5z"/>
			</g>
		</g>
		<g>
			<path fill="#231815" d="M20,26.5c-3.6,0-6.5-2.9-6.5-6.5c0-1.3,0.4-2.6,1.2-3.8c0.1-0.1,0.2-0.2,0.4-0.2c0.1,0,0.3,0,0.4,0.1
				l8.3,8.3c0.1,0.1,0.2,0.2,0.1,0.4c0,0.1-0.1,0.3-0.2,0.4C22.6,26.1,21.3,26.5,20,26.5z M15.2,17.3c-0.5,0.8-0.7,1.7-0.7,2.7
				c0,3,2.5,5.5,5.5,5.5c0.9,0,1.9-0.2,2.7-0.7L15.2,17.3z"/>
		</g>
		<g>
			<path fill="#231815" d="M24.9,24c-0.1,0-0.3-0.1-0.4-0.1l-8.3-8.3c-0.1-0.1-0.2-0.2-0.1-0.4c0-0.1,0.1-0.3,0.2-0.4
				c1.1-0.8,2.4-1.2,3.8-1.2c3.6,0,6.5,2.9,6.5,6.5c0,1.3-0.4,2.6-1.2,3.8C25.2,23.9,25.1,24,24.9,24C24.9,24,24.9,24,24.9,24z
				 M17.3,15.2l7.5,7.5c0.5-0.8,0.7-1.7,0.7-2.7c0-3-2.5-5.5-5.5-5.5C19.1,14.5,18.1,14.7,17.3,15.2z"/>
		</g>
	</g>
</g>
</svg>